<svg xmlns="http://www.w3.org/2000/svg" xmlns:xlink="http://www.w3.org/1999/xlink" viewBox="0 0 1366 768"><defs><style>.cls-1{fill:#87c541;}.cls-2{fill:#00aeef;}.cls-3{fill:url(#linear-gradient);}.cls-4{fill:url(#linear-gradient-2);}.cls-5{fill:url(#linear-gradient-3);}.cls-6{fill:url(#linear-gradient-4);}.cls-7{fill:url(#linear-gradient-5);}.cls-8{fill:#75c043;}</style><linearGradient id="linear-gradient" x1="989.94" y1="-3071.3" x2="571.7" y2="-3070.34" gradientTransform="matrix(1, 0, 0, -1, 0, -2689.89)" gradientUnits="userSpaceOnUse"><stop offset="0" stop-color="#88c540"/><stop offset="0.13" stop-color="#86c442"/><stop offset="0.25" stop-color="#7fc34b"/><stop offset="0.38" stop-color="#73c05b"/><stop offset="0.5" stop-color="#5fbd71"/><stop offset="0.63" stop-color="#3dba8b"/><stop offset="0.75" stop-color="#00b6a6"/><stop offset="0.88" stop-color="#00b2c7"/><stop offset="1" stop-color="#00aeed"/><stop offset="1" stop-color="#00aeef"/></linearGradient><linearGradient id="linear-gradient-2" x1="989.95" y1="-3071.01" x2="571.7" y2="-3070.04" xlink:href="#linear-gradient"/><linearGradient id="linear-gradient-3" x1="989.95" y1="-3070.5" x2="571.71" y2="-3069.54" xlink:href="#linear-gradient"/><linearGradient id="linear-gradient-4" x1="989.95" y1="-3070.68" x2="571.71" y2="-3069.71" xlink:href="#linear-gradient"/><linearGradient id="linear-gradient-5" x1="989.95" y1="-3070.75" x2="571.71" y2="-3069.79" xlink:href="#linear-gradient"/></defs><g id="text"><path class="cls-1" d="M715.65,480.87h-3.57V477.3h3.57Zm0,4h-3.57v-3.53h3.57Zm0,4h-3.57v-3.53h3.57Zm0,16.18h-3.57V501.5h3.57Zm4-24.2h-3.53V477.3h3.53Zm0,4h-3.53v-3.53h3.53Zm0,4h-3.53v-3.53h3.53Zm0,4h-3.53v-3.57h3.53Zm0,8.06h-3.53v-3.57h3.53Zm0,4.08h-3.53V501.5h3.53Zm4.05-12.14h-3.57v-3.57h3.57Zm0,4h-3.57v-3.53h3.57Zm0,4.05h-3.57v-3.57h3.57Zm4-20.12h-3.53V477.3h3.53Zm0,4h-3.53v-3.53h3.53Zm0,4h-3.53v-3.53h3.53Zm0,4h-3.53v-3.57h3.53Zm0,4h-3.53v-3.53h3.53Zm4-16.07h-3.53V477.3h3.53Zm0,4h-3.53v-3.53h3.53Zm0,4h-3.53v-3.53h3.53Z"/><path class="cls-1" d="M739.17,484.88H735.6v-3.53h3.57Zm0,4H735.6v-3.53h3.57Zm0,4H735.6v-3.57h3.57Zm4-12.06h-3.53V477.3h3.53Zm0,4h-3.53v-3.53h3.53Zm0,4h-3.53v-3.53h3.53Zm0,4h-3.53v-3.57h3.53Zm0,4h-3.53v-3.53h3.53Zm4.05-16.07h-3.57V477.3h3.57Zm0,16.07h-3.57v-3.53h3.57Zm4-16.07H747.7V477.3h3.53Zm0,4H747.7v-3.53h3.53Zm0,4H747.7v-3.53h3.53Zm0,4H747.7v-3.57h3.53Zm0,4H747.7v-3.53h3.53Zm4-12.06h-3.53v-3.53h3.53Zm0,4h-3.53v-3.53h3.53Zm0,4h-3.53v-3.57h3.53Z"/><path class="cls-1" d="M762.94,484.88h-3.57v-3.53h3.57Zm0,4h-3.57v-3.53h3.57Zm0,4h-3.57v-3.57h3.57Zm4-12.06h-3.54V477.3H767Zm0,4h-3.54v-3.53H767Zm0,4h-3.54v-3.53H767Zm0,4h-3.54v-3.57H767Zm0,4h-3.54v-3.53H767Zm0,8.13h-3.54V501.5H767Zm4-24.2h-3.57V477.3H771Zm0,16.07h-3.57v-3.53H771Zm0,8.13h-3.57V501.5H771Zm4-24.2h-3.53V477.3H775Zm0,4h-3.53v-3.53H775Zm0,4h-3.53v-3.53H775Zm0,4h-3.53v-3.57H775Zm0,4h-3.53v-3.53H775Zm0,4.05h-3.53v-3.57H775Zm0,4.08h-3.53V501.5H775Zm4-24.2h-3.54V477.3H779Zm0,4h-3.54v-3.53H779Zm0,4h-3.54v-3.53H779Zm0,4h-3.54v-3.57H779Zm0,4h-3.54v-3.53H779Zm0,4.05h-3.54v-3.57H779Z"/><path class="cls-1" d="M786.9,492.93h-3.57v-3.57h3.57Zm4-12.06h-3.53V477.3h3.53Zm0,8h-3.53v-3.53h3.53Zm0,4h-3.53v-3.57h3.53Zm0,4h-3.53v-3.53h3.53ZM795,480.87h-3.58V477.3H795Zm0,8h-3.58v-3.53H795Zm0,8.05h-3.58v-3.53H795Zm4-16.07h-3.53V477.3H799Zm0,4h-3.53v-3.53H799Zm0,4h-3.53v-3.53H799Zm0,4h-3.53v-3.57H799Zm0,4h-3.53v-3.53H799Zm4-12.06h-3.53v-3.53H803Zm0,4h-3.53v-3.53H803Zm0,4h-3.53v-3.57H803Zm0,4h-3.53v-3.53H803Z"/><path class="cls-1" d="M810.39,484.88h-3.57v-3.53h3.57Zm0,4h-3.57v-3.53h3.57Zm0,4h-3.57v-3.57h3.57Zm4-12.06h-3.53V477.3h3.53Zm0,4h-3.53v-3.53h3.53Zm0,4h-3.53v-3.53h3.53Zm0,4h-3.53v-3.57h3.53Zm0,4h-3.53v-3.53h3.53Zm4.05-16.07h-3.57V477.3h3.57Zm0,16.07h-3.57v-3.53h3.57Zm4-16.07h-3.53V477.3h3.53Zm0,16.07h-3.53v-3.53h3.53Z"/><path class="cls-1" d="M829.71,480.87h-3.57V477.3h3.57Zm0,4h-3.57v-3.53h3.57Zm0,4h-3.57v-3.53h3.57Zm0,4h-3.57v-3.57h3.57Zm0,4h-3.57v-3.53h3.57Zm4-16.07h-3.53V477.3h3.53Zm0,4h-3.53v-3.53h3.53Zm0,4h-3.53v-3.53h3.53Zm0,4h-3.53v-3.57h3.53Zm0,4h-3.53v-3.53h3.53Zm4-12.06h-3.57v-3.53h3.57Zm4-4h-3.53V477.3h3.53Zm0,4h-3.53v-3.53h3.53Z"/><path class="cls-1" d="M849.55,484.88H846v-3.53h3.57Zm0,4H846v-3.53h3.57Zm0,4H846v-3.57h3.57Zm4-12.06H850V477.3h3.53Zm0,4H850v-3.53h3.53Zm0,4H850v-3.53h3.53Zm0,4H850v-3.57h3.53Zm0,4H850v-3.53h3.53Zm4.05-16.07H854V477.3h3.57Zm0,8H854v-3.53h3.57Zm0,8.05H854v-3.53h3.57Zm4-16.07h-3.53V477.3h3.53Zm0,4h-3.53v-3.53h3.53Zm0,4h-3.53v-3.53h3.53Zm0,8.05h-3.53v-3.53h3.53Zm4-12.06h-3.53v-3.53h3.53Zm0,4h-3.53v-3.53h3.53Zm0,8.05h-3.53v-3.53h3.53Z"/><path class="cls-1" d="M873.15,492.93h-3.57v-3.57h3.57Zm4-12.06h-3.53V477.3h3.53Zm0,8h-3.53v-3.53h3.53Zm0,4h-3.53v-3.57h3.53Zm0,4h-3.53v-3.53h3.53Zm4.05-16.07h-3.57V477.3h3.57Zm0,8h-3.57v-3.53h3.57Zm0,8.05h-3.57v-3.53h3.57Zm4-16.07h-3.53V477.3h3.53Zm0,4h-3.53v-3.53h3.53Zm0,4h-3.53v-3.53h3.53Zm0,4h-3.53v-3.57h3.53Zm0,4h-3.53v-3.53h3.53Zm4-12.06h-3.53v-3.53h3.53Zm0,4h-3.53v-3.53h3.53Zm0,4h-3.53v-3.57h3.53Zm0,4h-3.53v-3.53h3.53Z"/><path class="cls-1" d="M896.64,480.87h-3.57V477.3h3.57Zm4-4h-3.53V473.3h3.53Zm0,4h-3.53V477.3h3.53Zm0,4h-3.53v-3.53h3.53Zm0,4h-3.53v-3.53h3.53Zm0,4h-3.53v-3.57h3.53Zm4-16.1h-3.57V473.3h3.57Zm0,4h-3.57V477.3h3.57Zm0,4h-3.57v-3.53h3.57Zm0,4h-3.57v-3.53h3.57Zm0,4h-3.57v-3.57h3.57Zm0,4h-3.57v-3.53h3.57Zm4-16.07h-3.53V477.3h3.53Zm0,16.07h-3.53v-3.53h3.53Zm4-16.07h-3.53V477.3h3.53Zm0,16.07h-3.53v-3.53h3.53Z"/><path class="cls-1" d="M920.32,472.82h-3.57v-3.57h3.57Zm0,8.05h-3.57V477.3h3.57Zm0,4h-3.57v-3.53h3.57Zm0,4h-3.57v-3.53h3.57Zm0,4h-3.57v-3.57h3.57Zm0,4h-3.57v-3.53h3.57Zm4-24.12H920.8v-3.57h3.53Zm0,8.05H920.8V477.3h3.53Zm0,4H920.8v-3.53h3.53Zm0,4H920.8v-3.53h3.53Zm0,4H920.8v-3.57h3.53Zm0,4H920.8v-3.53h3.53Z"/><path class="cls-1" d="M932,480.87h-3.57V477.3H932Zm0,4h-3.57v-3.53H932Zm0,4h-3.57v-3.53H932Zm4-8H932.5V477.3H936Zm0,4H932.5v-3.53H936Zm0,4H932.5v-3.53H936Zm0,4H932.5v-3.57H936Zm0,4H932.5v-3.53H936Zm4-4h-3.57v-3.57h3.57Zm0,4h-3.57v-3.53h3.57Zm4-16.07h-3.53V477.3h3.53Zm0,4h-3.53v-3.53h3.53Zm0,4h-3.53v-3.53h3.53Zm0,4h-3.53v-3.57h3.53Zm0,4h-3.53v-3.53h3.53Zm4-16.07h-3.54V477.3h3.54Zm0,4h-3.54v-3.53h3.54Zm0,4h-3.54v-3.53h3.54Z"/><path class="cls-1" d="M956.31,484.88h-3.57v-3.53h3.57Zm0,4h-3.57v-3.53h3.57Zm0,4h-3.57v-3.57h3.57Zm4-12.06h-3.53V477.3h3.53Zm0,4h-3.53v-3.53h3.53Zm0,4h-3.53v-3.53h3.53Zm0,4h-3.53v-3.57h3.53Zm0,4h-3.53v-3.53h3.53Zm4-16.07h-3.57V477.3h3.57Zm0,8h-3.57v-3.53h3.57Zm0,8.05h-3.57v-3.53h3.57Zm4-16.07h-3.53V477.3h3.53Zm0,4h-3.53v-3.53h3.53Zm0,4h-3.53v-3.53h3.53Zm0,8.05h-3.53v-3.53h3.53Zm4-12.06h-3.53v-3.53h3.53Zm0,4h-3.53v-3.53h3.53Zm0,8.05h-3.53v-3.53h3.53Z"/><path class="cls-1" d="M980.23,484.88h-3.57v-3.53h3.57Zm0,4h-3.57v-3.53h3.57Zm0,8.05h-3.57v-3.53h3.57Zm4-16.07h-3.53V477.3h3.53Zm0,4h-3.53v-3.53h3.53Zm0,4h-3.53v-3.53h3.53Zm0,8.05h-3.53v-3.53h3.53Zm4-16.07h-3.57V477.3h3.57Zm0,8h-3.57v-3.53h3.57Zm0,4h-3.57v-3.57h3.57Zm0,4h-3.57v-3.53h3.57Zm4-16.07h-3.53V477.3h3.53Zm0,8h-3.53v-3.53h3.53Zm0,4h-3.53v-3.57h3.53Z"/><path class="cls-2" d="M377.37,284.88H373.8v-3.53h3.57Zm0,4H373.8v-3.53h3.57Zm0,4H373.8v-3.57h3.57Zm4-12.06h-3.53V277.3h3.53Zm0,4h-3.53v-3.53h3.53Zm0,4h-3.53v-3.53h3.53Zm0,4h-3.53v-3.57h3.53Zm0,4h-3.53v-3.53h3.53Zm4.05-16.07h-3.57V277.3h3.57Zm0,16.07h-3.57v-3.53h3.57Zm4-16.07H385.9V277.3h3.53Zm0,16.07H385.9v-3.53h3.53Z"/><path class="cls-2" d="M396.7,284.88h-3.58v-3.53h3.58Zm0,4h-3.58v-3.53h3.58Zm0,4h-3.58v-3.57h3.58Zm4-12.06h-3.53V277.3h3.53Zm0,4h-3.53v-3.53h3.53Zm0,4h-3.53v-3.53h3.53Zm0,4h-3.53v-3.57h3.53Zm0,4h-3.53v-3.53h3.53Zm4.05-16.07h-3.57V277.3h3.57Zm0,16.07h-3.57v-3.53h3.57Zm4-16.07h-3.54V277.3h3.54Zm0,4h-3.54v-3.53h3.54Zm0,4h-3.54v-3.53h3.54Zm0,4h-3.54v-3.57h3.54Zm0,4h-3.54v-3.53h3.54Zm4-12.06h-3.53v-3.53h3.53Zm0,4h-3.53v-3.53h3.53Zm0,4h-3.53v-3.57h3.53Z"/><path class="cls-2" d="M420.46,280.87h-3.57V277.3h3.57Zm0,4h-3.57v-3.53h3.57Zm0,4h-3.57v-3.53h3.57Zm0,4h-3.57v-3.57h3.57Zm0,4h-3.57v-3.53h3.57Zm4-16.07h-3.53V277.3h3.53Zm0,4h-3.53v-3.53h3.53Zm0,4h-3.53v-3.53h3.53Zm0,4h-3.53v-3.57h3.53Zm0,4h-3.53v-3.53h3.53Zm4-16.07h-3.57V277.3h3.57Zm4,4H429v-3.53h3.53Zm0,4H429v-3.53h3.53Zm0,4H429v-3.57h3.53Zm0,4H429v-3.53h3.53Zm4-16.07H433V277.3h3.53Zm0,4H433v-3.53h3.53Zm0,4H433v-3.53h3.53Zm0,4H433v-3.57h3.53Zm0,4H433v-3.53h3.53Zm4-16.07H437V277.3h3.57Zm4,0h-3.53V277.3h3.53Zm0,4h-3.53v-3.53h3.53Zm0,4h-3.53v-3.53h3.53Zm0,4h-3.53v-3.57h3.53Zm0,4h-3.53v-3.53h3.53Zm4.05-12.06h-3.57v-3.53h3.57Zm0,4h-3.57v-3.53h3.57Zm0,4h-3.57v-3.57h3.57Zm0,4h-3.57v-3.53h3.57Z"/><path class="cls-2" d="M456.33,272.82h-3.58v-3.57h3.58Zm0,8.05h-3.58V277.3h3.58Zm0,4h-3.58v-3.53h3.58Zm0,4h-3.58v-3.53h3.58Zm0,4h-3.58v-3.57h3.58Zm0,4h-3.58v-3.53h3.58Zm4-24.12H456.8v-3.57h3.53Zm0,8.05H456.8V277.3h3.53Zm0,4H456.8v-3.53h3.53Zm0,4H456.8v-3.53h3.53Zm0,4H456.8v-3.57h3.53Zm0,4H456.8v-3.53h3.53Z"/><path class="cls-2" d="M468,280.87h-3.57V277.3H468Zm0,4h-3.57v-3.53H468Zm0,4h-3.57v-3.53H468Zm0,4h-3.57v-3.57H468Zm0,4h-3.57v-3.53H468Zm4-16.07h-3.53V277.3H472Zm0,4h-3.53v-3.53H472Zm0,4h-3.53v-3.53H472Zm0,4h-3.53v-3.57H472Zm0,4h-3.53v-3.53H472Zm4-16.07h-3.57V277.3h3.57Zm4,0h-3.53V277.3h3.53Zm0,4h-3.53v-3.53h3.53Zm0,4h-3.53v-3.53h3.53Zm0,4h-3.53v-3.57h3.53Zm0,4h-3.53v-3.53h3.53Zm4-12.06h-3.53v-3.53h3.53Zm0,4h-3.53v-3.53h3.53Zm0,4h-3.53v-3.57h3.53Zm0,4h-3.53v-3.53h3.53Z"/><path class="cls-2" d="M491.87,284.88H488.3v-3.53h3.57Zm0,4H488.3v-3.53h3.57Zm0,4H488.3v-3.57h3.57Zm4-12.06h-3.53V277.3h3.53Zm0,4h-3.53v-3.53h3.53Zm0,4h-3.53v-3.53h3.53Zm0,4h-3.53v-3.57h3.53Zm0,4h-3.53v-3.53h3.53Zm0,8.13h-3.53V301.5h3.53Zm4.05-24.2h-3.57V277.3h3.57Zm0,16.07h-3.57v-3.53h3.57Zm0,8.13h-3.57V301.5h3.57Zm4-24.2H500.4V277.3h3.53Zm0,4H500.4v-3.53h3.53Zm0,4H500.4v-3.53h3.53Zm0,4H500.4v-3.57h3.53Zm0,4H500.4v-3.53h3.53Zm0,4.05H500.4v-3.57h3.53Zm0,4.08H500.4V301.5h3.53Zm4-24.2h-3.53V277.3h3.53Zm0,4h-3.53v-3.53h3.53Zm0,4h-3.53v-3.53h3.53Zm0,4h-3.53v-3.57h3.53Zm0,4h-3.53v-3.53h3.53Zm0,4.05h-3.53v-3.57h3.53Z"/><path class="cls-2" d="M524.17,284.88H520.6v-3.53h3.57Zm0,4H520.6v-3.53h3.57Zm0,8.05H520.6v-3.53h3.57Zm4-16.07h-3.53V277.3h3.53Zm0,4h-3.53v-3.53h3.53Zm0,4h-3.53v-3.53h3.53Zm0,8.05h-3.53v-3.53h3.53Zm4.05-16.07h-3.57V277.3h3.57Zm0,8h-3.57v-3.53h3.57Zm0,4h-3.57v-3.57h3.57Zm0,4h-3.57v-3.53h3.57Zm4-16.07H532.7V277.3h3.53Zm0,8H532.7v-3.53h3.53Zm0,4H532.7v-3.57h3.53Z"/><path class="cls-2" d="M544,284.88h-3.57v-3.53H544Zm0,4h-3.57v-3.53H544Zm0,4h-3.57v-3.57H544Zm4-12.06h-3.53V277.3H548Zm0,4h-3.53v-3.53H548Zm0,4h-3.53v-3.53H548Zm0,4h-3.53v-3.57H548Zm0,4h-3.53v-3.53H548Zm4-16.07h-3.57V277.3h3.57Zm0,16.07h-3.57v-3.53h3.57Zm4-16.07h-3.54V277.3h3.54Zm0,4h-3.54v-3.53h3.54Zm0,4h-3.54v-3.53h3.54Zm0,4h-3.54v-3.57h3.54Zm0,4h-3.54v-3.53h3.54Zm4-12.06h-3.53v-3.53h3.53Zm0,4h-3.53v-3.53h3.53Zm0,4h-3.53v-3.57h3.53Z"/><path class="cls-2" d="M567.77,284.88H564.2v-3.53h3.57Zm0,4H564.2v-3.53h3.57Zm0,4H564.2v-3.57h3.57Zm4-12.06h-3.53V277.3h3.53Zm0,4h-3.53v-3.53h3.53Zm0,4h-3.53v-3.53h3.53Zm0,4h-3.53v-3.57h3.53Zm0,4h-3.53v-3.53h3.53Zm4-16.07h-3.57V277.3h3.57Zm0,16.07h-3.57v-3.53h3.57Zm4-16.07H576.3V277.3h3.53Zm0,4H576.3v-3.53h3.53Zm0,4H576.3v-3.53h3.53Zm0,4H576.3v-3.57h3.53Zm0,4H576.3v-3.53h3.53Zm4-12.06h-3.53v-3.53h3.53Zm0,4h-3.53v-3.53h3.53Zm0,4h-3.53v-3.57h3.53Z"/><path class="cls-2" d="M591.54,280.87H588V277.3h3.58Zm0,4H588v-3.53h3.58Zm0,4H588v-3.53h3.58Zm0,4H588v-3.57h3.58Zm0,4H588v-3.53h3.58Zm4-16.07H592V277.3h3.53Zm0,4H592v-3.53h3.53Zm0,4H592v-3.53h3.53Zm0,4H592v-3.57h3.53Zm0,4H592v-3.53h3.53Zm4.05-16.07H596V277.3h3.57Zm4,0h-3.54V277.3h3.54Zm0,4h-3.54v-3.53h3.54Zm0,4h-3.54v-3.53h3.54Zm0,4h-3.54v-3.57h3.54Zm0,4h-3.54v-3.53h3.54Zm4-12.06h-3.53v-3.53h3.53Zm0,4h-3.53v-3.53h3.53Zm0,4h-3.53v-3.57h3.53Zm0,4h-3.53v-3.53h3.53Z"/><path class="cls-2" d="M551.51,423.21h-78.8a3.39,3.39,0,0,1-3.4-3.41V341.13a3.45,3.45,0,0,1,2-3.15,3.29,3.29,0,0,1,3.65.75l36.94,36.94,37.2-36.94a3.3,3.3,0,0,1,3.65-.75h0a3.32,3.32,0,0,1,2,3.15v78.8A3.18,3.18,0,0,1,551.51,423.21Zm-78.17-3.91h77.54V342.52l-38.83,38.83-38.71-38.83Z"/><path class="cls-2" d="M414.72,423.21A42.63,42.63,0,1,1,445,410.72,42.44,42.44,0,0,1,414.72,423.21Zm0-81.45a38.93,38.93,0,0,0-27.49,11.35,38.51,38.51,0,0,0-11.34,27.48,39,39,0,0,0,11.34,27.49,38.87,38.87,0,1,0,27.49-66.32Z"/><path class="cls-3" d="M651.74,418,613.16,379.2a1.55,1.55,0,0,0-2,0L572.57,418V338h-2.9v83.59a1.54,1.54,0,0,0,.88,1.38,1.19,1.19,0,0,0,1.51-.38l40-40.34,40,40.34a1.39,1.39,0,0,0,1,.38.8.8,0,0,0,.51-.12,1.57,1.57,0,0,0,.88-1.39V338h-2.9V418Z"/><path class="cls-4" d="M713.65,338a42.63,42.63,0,1,0,30,12.48A41.84,41.84,0,0,0,713.65,338Zm28,70.47a39.56,39.56,0,1,1,11.6-28A38.86,38.86,0,0,1,741.64,408.45Z"/><path class="cls-5" d="M975.51,379.08H946c-4.29,0-8.2-2-11.35-5.55A20.55,20.55,0,0,1,929.87,360a21,21,0,0,1,4.79-13.49A15,15,0,0,1,946,341h29.5c4.29,0,8.2,2,11.35,5.55A20.55,20.55,0,0,1,991.65,360h2.9c0-12.1-8.58-21.94-19-21.94H946c-10.47,0-19,9.84-19,21.94S935.54,382,946,382h29.5c4.29,0,8.2,2,11.35,5.55A20.52,20.52,0,0,1,991.65,401a20.76,20.76,0,0,1-4.79,13.49,15,15,0,0,1-11.35,5.54H946c-4.29,0-8.2-2-11.35-5.54A20.55,20.55,0,0,1,929.87,401a1.39,1.39,0,1,0-2.77,0c0,12.1,8.57,21.93,19,21.93h29.51c10.46,0,19-9.83,19-21.93S986,379.08,975.51,379.08Z"/><polygon class="cls-6" points="913.86 340.25 912.09 337.98 859.64 377.56 859.64 337.98 856.75 337.98 856.75 422.95 859.64 422.95 859.64 383.37 912.09 423.2 913.86 420.81 860.53 380.46 913.86 340.25"/><path class="cls-7" d="M818.67,338H774.16a1.4,1.4,0,0,0-1.38,1.38v82.08a1.4,1.4,0,0,0,1.38,1.39h64.56a1.41,1.41,0,0,0,1.26-.76,1.34,1.34,0,0,0-.13-1.51l-28.62-39.09h7.44A21.51,21.51,0,0,0,840.1,360v-.76A21.29,21.29,0,0,0,818.67,338Zm18.66,22.19A18.51,18.51,0,0,1,818.8,378.7H808.46a1.37,1.37,0,0,0-1.26.76,1.32,1.32,0,0,0,.12,1.51l28.62,39.08H775.68V340.88h43a18.51,18.51,0,0,1,18.53,18.53v.76Z"/><rect class="cls-8" x="635.67" y="286.72" width="359" height="1"/><rect class="cls-2" x="371.98" y="486.7" width="315.2" height="1"/></g></svg>