<?xml version="1.0" encoding="utf-8"?>
<!-- Generator: Adobe Illustrator 24.2.0, SVG Export Plug-In . SVG Version: 6.00 Build 0)  -->
<svg version="1.1" id="Layer_1" xmlns="http://www.w3.org/2000/svg" xmlns:xlink="http://www.w3.org/1999/xlink" x="0px" y="0px"
	 viewBox="0 0 595.3 166.9" style="enable-background:new 0 0 595.3 166.9;" xml:space="preserve">
<style type="text/css">
	.st0{fill:#00AEEF;}
	.st1{fill:url(#SVGID_1_);}
	.st2{fill:url(#SVGID_2_);}
	.st3{fill:url(#SVGID_3_);}
	.st4{fill:url(#SVGID_4_);}
	.st5{fill:url(#SVGID_5_);}
</style>
<g>
	<path class="st0" d="M193.1,111h-62.5c-1.5,0-2.7-1.2-2.7-2.7V45.9c0-1.1,0.6-2,1.6-2.5c1-0.4,2.1-0.2,2.9,0.6l29.3,29.3L191.2,44
		c0.8-0.8,1.9-1,2.9-0.6l0,0c1,0.4,1.6,1.4,1.6,2.5v62.5C195.8,109.8,194.6,111,193.1,111z M131.1,107.9h61.5V47l-30.8,30.8
		L131.1,47V107.9z"/>
	<path class="st0" d="M84.6,111c-9.1,0-17.6-3.5-24-9.9c-6.4-6.4-9.9-14.9-9.9-24c0-9.1,3.5-17.6,9.9-24c6.4-6.4,14.9-9.9,24-9.9
		s17.6,3.5,24,9.9c6.4,6.4,9.9,14.9,9.9,24c0,9.1-3.5,17.6-9.9,24C102.2,107.5,93.6,111,84.6,111z M84.6,46.4
		c-8.2,0-15.9,3.2-21.8,9c-5.8,5.8-9,13.5-9,21.8c0,8.2,3.2,15.9,9,21.8c5.8,5.8,13.5,9,21.8,9s15.9-3.2,21.8-9
		c5.8-5.8,9-13.5,9-21.8c0-8.2-3.2-15.9-9-21.8C100.5,49.6,92.8,46.4,84.6,46.4z"/>
	<g>
		<linearGradient id="SVGID_1_" gradientUnits="userSpaceOnUse" x1="540.8447" y1="77.7772" x2="209.1111" y2="77.0128">
			<stop  offset="0" style="stop-color:#88C540"/>
			<stop  offset="0.1281" style="stop-color:#86C442"/>
			<stop  offset="0.254" style="stop-color:#7FC34B"/>
			<stop  offset="0.379" style="stop-color:#73C05B"/>
			<stop  offset="0.5036" style="stop-color:#5FBD71"/>
			<stop  offset="0.6279" style="stop-color:#3DBA8B"/>
			<stop  offset="0.7519" style="stop-color:#00B6A6"/>
			<stop  offset="0.8759" style="stop-color:#00B2C7"/>
			<stop  offset="0.9969" style="stop-color:#00AEED"/>
			<stop  offset="1" style="stop-color:#00AEEF"/>
		</linearGradient>
		<path class="st1" d="M272.6,106.9L242,76.1c-0.2-0.2-0.5-0.3-0.8-0.3c-0.3,0-0.6,0.1-0.8,0.3l-30.6,30.8V43.4h-2.3v66.3
			c0,0.5,0.3,0.9,0.7,1.1c0.4,0.2,0.9,0.1,1.2-0.3l31.7-32l31.7,32c0.2,0.2,0.5,0.3,0.8,0.3c0.1,0,0.3,0,0.4-0.1
			c0.4-0.2,0.7-0.6,0.7-1.1V43.4h-2.3V106.9z"/>
		<linearGradient id="SVGID_2_" gradientUnits="userSpaceOnUse" x1="540.8451" y1="77.628" x2="209.1114" y2="76.8636">
			<stop  offset="0" style="stop-color:#88C540"/>
			<stop  offset="0.1281" style="stop-color:#86C442"/>
			<stop  offset="0.254" style="stop-color:#7FC34B"/>
			<stop  offset="0.379" style="stop-color:#73C05B"/>
			<stop  offset="0.5036" style="stop-color:#5FBD71"/>
			<stop  offset="0.6279" style="stop-color:#3DBA8B"/>
			<stop  offset="0.7519" style="stop-color:#00B6A6"/>
			<stop  offset="0.8759" style="stop-color:#00B2C7"/>
			<stop  offset="0.9969" style="stop-color:#00AEED"/>
			<stop  offset="1" style="stop-color:#00AEEF"/>
		</linearGradient>
		<path class="st2" d="M321.7,43.4c-9,0-17.5,3.5-23.8,9.9c-6.4,6.4-9.9,14.8-9.9,23.8c0,9,3.5,17.5,9.9,23.8
			c6.4,6.4,14.8,9.9,23.8,9.9c9,0,17.5-3.5,23.8-9.9c6.4-6.4,9.9-14.8,9.9-23.8c0-9-3.5-17.5-9.9-23.8
			C339.2,46.9,330.7,43.4,321.7,43.4z M343.9,99.3c-5.9,5.9-13.8,9.2-22.2,9.2c-8.4,0-16.3-3.3-22.2-9.2c-5.9-5.9-9.2-13.8-9.2-22.2
			c0-8.4,3.3-16.3,9.2-22.2c5.9-5.9,13.8-9.2,22.2-9.2c8.4,0,16.3,3.3,22.2,9.2c5.9,5.9,9.2,13.8,9.2,22.2
			C353.1,85.5,349.9,93.4,343.9,99.3z"/>
		<linearGradient id="SVGID_3_" gradientUnits="userSpaceOnUse" x1="540.8461" y1="77.1763" x2="209.1125" y2="76.412">
			<stop  offset="0" style="stop-color:#88C540"/>
			<stop  offset="0.1281" style="stop-color:#86C442"/>
			<stop  offset="0.254" style="stop-color:#7FC34B"/>
			<stop  offset="0.379" style="stop-color:#73C05B"/>
			<stop  offset="0.5036" style="stop-color:#5FBD71"/>
			<stop  offset="0.6279" style="stop-color:#3DBA8B"/>
			<stop  offset="0.7519" style="stop-color:#00B6A6"/>
			<stop  offset="0.8759" style="stop-color:#00B2C7"/>
			<stop  offset="0.9969" style="stop-color:#00AEED"/>
			<stop  offset="1" style="stop-color:#00AEEF"/>
		</linearGradient>
		<path class="st3" d="M529.4,76h-23.4c-3.4,0-6.5-1.6-9-4.4c-2.5-2.9-3.8-6.7-3.8-10.7s1.4-7.9,3.8-10.7c2.4-2.8,5.6-4.4,9-4.4
			h23.4c3.4,0,6.5,1.6,9,4.4c2.5,2.9,3.8,6.7,3.8,10.7h2.3c0-9.6-6.8-17.4-15.1-17.4h-23.4c-8.3,0-15.1,7.8-15.1,17.4
			s6.8,17.4,15.1,17.4h23.4c3.4,0,6.5,1.6,9,4.4c2.5,2.9,3.8,6.7,3.8,10.7c0,4.1-1.4,7.9-3.8,10.7c-2.4,2.8-5.6,4.4-9,4.4h-23.4
			c-3.4,0-6.5-1.6-9-4.4c-2.5-2.9-3.8-6.7-3.8-10.7c0-0.6-0.5-1.1-1.1-1.1s-1.1,0.5-1.1,1.1c0,9.6,6.8,17.4,15.1,17.4h23.4
			c8.3,0,15.1-7.8,15.1-17.4C544.5,83.8,537.7,76,529.4,76z"/>
		<linearGradient id="SVGID_4_" gradientUnits="userSpaceOnUse" x1="540.8458" y1="77.3247" x2="209.1121" y2="76.5603">
			<stop  offset="0" style="stop-color:#88C540"/>
			<stop  offset="0.1281" style="stop-color:#86C442"/>
			<stop  offset="0.254" style="stop-color:#7FC34B"/>
			<stop  offset="0.379" style="stop-color:#73C05B"/>
			<stop  offset="0.5036" style="stop-color:#5FBD71"/>
			<stop  offset="0.6279" style="stop-color:#3DBA8B"/>
			<stop  offset="0.7519" style="stop-color:#00B6A6"/>
			<stop  offset="0.8759" style="stop-color:#00B2C7"/>
			<stop  offset="0.9969" style="stop-color:#00AEED"/>
			<stop  offset="1" style="stop-color:#00AEEF"/>
		</linearGradient>
		<polygon class="st4" points="480.5,45.2 479.1,43.4 437.5,74.8 437.5,43.4 435.2,43.4 435.2,110.8 437.5,110.8 437.5,79.4 
			479.1,111 480.5,109.1 438.2,77.1 		"/>
		<linearGradient id="SVGID_5_" gradientUnits="userSpaceOnUse" x1="540.8454" y1="77.4768" x2="209.1118" y2="76.7124">
			<stop  offset="0" style="stop-color:#88C540"/>
			<stop  offset="0.1281" style="stop-color:#86C442"/>
			<stop  offset="0.254" style="stop-color:#7FC34B"/>
			<stop  offset="0.379" style="stop-color:#73C05B"/>
			<stop  offset="0.5036" style="stop-color:#5FBD71"/>
			<stop  offset="0.6279" style="stop-color:#3DBA8B"/>
			<stop  offset="0.7519" style="stop-color:#00B6A6"/>
			<stop  offset="0.8759" style="stop-color:#00B2C7"/>
			<stop  offset="0.9969" style="stop-color:#00AEED"/>
			<stop  offset="1" style="stop-color:#00AEEF"/>
		</linearGradient>
		<path class="st5" d="M405,43.4h-35.3c-0.6,0-1.1,0.5-1.1,1.1v65.1c0,0.6,0.5,1.1,1.1,1.1h51.2c0.4,0,0.8-0.2,1-0.6
			c0.2-0.4,0.2-0.8-0.1-1.2l-22.7-31h5.9c4.5,0,8.8-1.8,12-5c3.2-3.2,5-7.5,5-12v-0.6c0-4.5-1.8-8.8-5-12
			C413.8,45.2,409.6,43.4,405,43.4z M419.8,61c0,3.9-1.5,7.6-4.3,10.4c-2.8,2.8-6.5,4.3-10.4,4.3h-8.2c-0.4,0-0.8,0.2-1,0.6
			c-0.2,0.4-0.2,0.8,0.1,1.2l22.7,31h-47.8V45.7H405c3.9,0,7.6,1.5,10.4,4.3c2.8,2.8,4.3,6.5,4.3,10.4V61z"/>
	</g>
</g>
</svg>
